<svg width="914" height="400" fill="none" xmlns="http://www.w3.org/2000/svg">
  <path fill="#fff" d="M0 0h914v400H0z"/>
  <path d="M405.963 210.248v-4.375a8.52 8.52 0 002.584 1.504 8.41 8.41 0 002.816.492 6.17 6.17 0 001.449-.15c.42-.101.766-.237 1.04-.41.282-.183.492-.392.628-.629.137-.246.206-.511.206-.793a1.7 1.7 0 00-.329-1.026 3.502 3.502 0 00-.902-.834 9.035 9.035 0 00-1.34-.738 47.916 47.916 0 00-1.681-.725c-1.532-.638-2.676-1.417-3.432-2.337-.747-.921-1.121-2.033-1.121-3.336 0-1.021.205-1.896.615-2.625a5.223 5.223 0 011.668-1.819c.711-.474 1.531-.82 2.461-1.039.93-.228 1.914-.342 2.953-.342 1.021 0 1.923.064 2.707.192.793.118 1.522.305 2.188.56v4.088a6.444 6.444 0 00-1.08-.601 7.684 7.684 0 00-1.19-.424 8.425 8.425 0 00-1.23-.26 8.462 8.462 0 00-1.149-.082c-.501 0-.957.05-1.367.15-.41.092-.756.224-1.039.397a1.973 1.973 0 00-.656.629 1.441 1.441 0 00-.233.806c0 .329.087.625.26.889.173.255.419.501.738.738a8.76 8.76 0 001.162.684c.456.219.971.447 1.545.684.784.328 1.486.679 2.106 1.052.629.365 1.167.78 1.613 1.244a4.86 4.86 0 011.026 1.6c.236.593.355 1.285.355 2.078 0 1.094-.21 2.015-.629 2.762a5.07 5.07 0 01-1.682 1.805c-.711.455-1.54.783-2.488.984a14.21 14.21 0 01-2.98.301c-1.076 0-2.101-.091-3.076-.274-.967-.182-1.805-.455-2.516-.82zm41.686-18.853L442.467 211h-4.894l-3.254-12.578a10.532 10.532 0 01-.315-2.201h-.054c-.082.893-.201 1.627-.356 2.201L430.258 211h-5.099l-5.155-19.605h4.827l2.761 13.056c.119.556.205 1.304.26 2.242h.082c.037-.701.169-1.467.397-2.297l3.554-13.001h4.731l3.213 13.166c.118.483.223 1.184.314 2.105h.055c.036-.72.132-1.449.287-2.187l2.707-13.084h4.457zm6.344 12.851V211h-4.416v-19.605h6.918c4.94 0 7.41 2.082 7.41 6.248 0 1.968-.711 3.563-2.132 4.785-1.413 1.212-3.304 1.818-5.674 1.818h-2.106zm0-9.461v6.111h1.737c2.351 0 3.527-1.029 3.527-3.089 0-2.015-1.176-3.022-3.527-3.022h-1.737zm21.49-1.723V211h-1.819v-17.938h-5.646v-1.667h13.125v1.667h-5.66zm10.869 18.266c-1.039 0-1.973-.173-2.802-.519a6.044 6.044 0 01-2.106-1.463 6.55 6.55 0 01-1.34-2.284c-.31-.884-.464-1.863-.464-2.939 0-1.167.164-2.21.492-3.131.328-.92.793-1.7 1.394-2.338a6.016 6.016 0 012.201-1.476c.857-.338 1.814-.506 2.872-.506 1.011 0 1.923.168 2.734.506a5.507 5.507 0 012.064 1.435c.565.629.998 1.395 1.299 2.297.301.902.451 1.928.451 3.076 0 1.094-.159 2.092-.478 2.994a6.671 6.671 0 01-1.34 2.311 5.964 5.964 0 01-2.133 1.504c-.838.355-1.786.533-2.844.533zm.137-13.139c-.765 0-1.458.133-2.078.397a4.39 4.39 0 00-1.6 1.162c-.437.501-.774 1.121-1.011 1.859-.237.73-.356 1.559-.356 2.489 0 .875.119 1.663.356 2.365a5.4 5.4 0 00.998 1.805c.437.501.966.888 1.586 1.162.619.264 1.312.396 2.078.396.784 0 1.476-.127 2.078-.383a4.205 4.205 0 001.531-1.134c.419-.502.734-1.112.944-1.832.218-.72.328-1.541.328-2.461 0-1.887-.42-3.327-1.258-4.321-.839-1.002-2.037-1.504-3.596-1.504zm11.376 10.555v8.695h-1.75V197h1.75v2.68h.054c.52-.976 1.213-1.718 2.078-2.229.875-.519 1.86-.779 2.954-.779.893 0 1.69.164 2.392.492a4.828 4.828 0 011.791 1.367c.492.593.866 1.313 1.121 2.16.265.848.397 1.801.397 2.858 0 1.157-.146 2.215-.438 3.172-.291.948-.711 1.763-1.258 2.447a5.757 5.757 0 01-1.996 1.6c-.774.373-1.649.56-2.625.56-1.968 0-3.44-.861-4.416-2.584h-.054zm0-3.568c0 .638.105 1.239.314 1.804.219.556.52 1.049.902 1.477.383.419.844.752 1.381.998a4.351 4.351 0 001.805.369c.702 0 1.335-.146 1.9-.437a4.151 4.151 0 001.436-1.272c.401-.547.706-1.207.916-1.982.219-.775.328-1.641.328-2.598 0-.82-.1-1.558-.301-2.215-.2-.665-.487-1.23-.861-1.695a3.625 3.625 0 00-1.34-1.066c-.519-.247-1.103-.37-1.75-.37-.729 0-1.385.137-1.969.411a4.367 4.367 0 00-1.49 1.093 4.873 4.873 0 00-.943 1.641 5.909 5.909 0 00-.328 1.982v1.86z" fill="#333"/>
</svg>
